<svg id="STYLE_1" data-name="STYLE 1" xmlns="http://www.w3.org/2000/svg" xmlns:xlink="http://www.w3.org/1999/xlink" viewBox="0 0 2118 1098"><defs><style>.cls-1{fill:#f8931f;}.cls-2,.cls-3{fill:none;stroke-miterlimit:10;}.cls-2{stroke:#444054;stroke-width:10px;}.cls-3{stroke:#2f243a;stroke-width:5px;}.cls-4{fill:#30243a;}.cls-5{fill:#f7931e;}.cls-6{clip-path:url(#clip-path);}.cls-7{clip-path:url(#clip-path-2);}.cls-8{clip-path:url(#clip-path-3);}.cls-9{clip-path:url(#clip-path-4);}.cls-10{clip-path:url(#clip-path-5);}.cls-11{clip-path:url(#clip-path-6);}.cls-12{clip-path:url(#clip-path-7);}.cls-13{clip-path:url(#clip-path-8);}.cls-14{clip-path:url(#clip-path-9);}</style><clipPath id="clip-path"><path class="cls-1" d="M1085.2,559.49a61,61,0,0,0-1.59,14.64H1080v-4.24q0-4.14-1.12-5.62c-.74-1-2.67-2-5.8-3.16a29.39,29.39,0,0,0-9.89-1.67q-8.49,0-13.34,4.29a14,14,0,0,0-4.85,11,13,13,0,0,0,2,7.28,11.27,11.27,0,0,0,5.36,4.4q3.38,1.35,14.29,2.38t14.77,2.81a13.6,13.6,0,0,1,6.15,5.62,17.63,17.63,0,0,1,2.31,9.18q0,10.67-8.91,18.36t-23.76,7.7a52.22,52.22,0,0,1-10.26-1,63.54,63.54,0,0,1-10.42-3,108.72,108.72,0,0,0,.9-16.33H1041v2.65c0,3.43.17,5.55.53,6.36a6.88,6.88,0,0,0,2.49,2.6,21.67,21.67,0,0,0,7,3.16,33.43,33.43,0,0,0,8.7,1.09q10,0,15.48-4.72a15.17,15.17,0,0,0,5.46-12,13.3,13.3,0,0,0-1.85-7.19,11.17,11.17,0,0,0-5.2-4.37q-3.35-1.44-12.36-2.18-12-.94-16.28-2.86a14.5,14.5,0,0,1-6.73-6,19.66,19.66,0,0,1-2.44-10.21,21.47,21.47,0,0,1,7.48-16.91q7.47-6.59,20.68-6.58a50.7,50.7,0,0,1,10.63,1.14A56.62,56.62,0,0,1,1085.2,559.49Z"/></clipPath><clipPath id="clip-path-2"><path class="cls-1" d="M1189,567.39l-15.77,32.8q-8.87,18.48-14.54,32.28h-2.12q-2-4.72-11.26-24.26l-19-39.34v41q0,14.32,1.15,16.26t7.11,1.93h2v3.35q-7.39-.37-12-.38-3.36,0-13.34.38v-3.35h3.44c2.34,0,3.89-.33,4.67-1a5.38,5.38,0,0,0,1.43-3.66q.69-7.42.69-16v-30a133.39,133.39,0,0,0-.48-14.37,3.71,3.71,0,0,0-1.56-2.75c-.9-.64-2.7-1-5.38-1h-2.81v-3.34q9.22.38,11.61.37c2,0,4.88-.12,8.6-.37q6.42,14.28,14.81,31.47l14,28.7,12.9-26.58q6.78-13.95,15.49-33.59,6.63.38,9.34.37c2.08,0,5.85-.12,11.29-.37v3.34h-3.46q-4.7,0-5.73,1.62t-1,11.64v38.77q0,12.93,1.09,14.85t6.1,1.9h3v3.35q-7.37-.37-14.11-.38-7.43,0-15.53.38v-3.35h3.5q4.18,0,5.06-1.83t.88-15.72Z"/></clipPath><clipPath id="clip-path-3"><path class="cls-1" d="M1262.19,589.62l36.17,33.67,3.28,3.13a5.24,5.24,0,0,0,2,1.33,13.1,13.1,0,0,0,3.42.31v3.35q-4.35-.37-7.64-.38-3.45,0-7.53.38l-36.54-34.69c-1.24-1.17-2-1.75-2.28-1.75Q1252,595,1252,597v16.17c0,7.89.15,12.2.48,12.95q.79,1.9,5.75,1.9h4v3.35q-8.65-.37-15.35-.38-7,0-15.09.38v-3.35h4.3q4.23,0,5.09-1.56T1242,613V577.52q0-14.58-.85-16.41t-5.09-1.83h-4.3v-3.34q9.72.38,14.08.37,3.13,0,16.36-.37v3.34l-4.21.16c-2.42.11-4,.43-4.58,1a4.91,4.91,0,0,0-1.2,3.26c-.17,1.63-.24,6.31-.24,14.06v14.31h.74q4.35-3.54,7.48-6.49t10.28-10.32l15.07-15.59v-3.71q5.82.38,9.65.37t8.8-.37v3.34h-2.86a13.25,13.25,0,0,0-6.47,1.46Q1292,562.2,1282.45,571Z"/></clipPath><clipPath id="clip-path-4"><path class="cls-1" d="M1342.52,567.91v36.65q0,12.53.48,17.46c.25,2.51.66,4,1.25,4.59s2.28.94,5.09,1.19l3.41.26v3.35q-5.79-.37-10.47-.38-3.24,0-14.88.38v-3.35h3.82c2.3,0,3.8-.31,4.51-.95s1.15-1.89,1.32-3.77q.59-5.82.59-15.85V581.13q0-7.43-.16-14.69a9.36,9.36,0,0,0-.82-4.22,6.84,6.84,0,0,0-2.1-2,7.06,7.06,0,0,0-3.87-.9h-3.29v-3.34q6.74.38,10.29.37,3.82,0,8.38-.37,5.25,6.42,9.89,12.49t9.63,12.22l18.13,22.28q9.81,12,14.16,16.65V585.53q0-21.37-.77-23.36c-.51-1.33-2.55-2.16-6.12-2.52l-4-.37v-3.34q8.54.38,13.26.37,4.93,0,12.73-.37v3.34h-4.09c-3.28,0-5.18,1.1-5.67,3.29q-.48,2.17-.48,23.23v23.91q0,9.66.85,23.07a59.41,59.41,0,0,1-8.38-1.61,6.75,6.75,0,0,1-2.23-1.67q-5.88-6.53-12.35-14.49Z"/></clipPath><clipPath id="clip-path-5"><path class="cls-1" d="M1479.36,631.41v-3l18.35-19.1q10.44-10.82,14-17.58a27.22,27.22,0,0,0,3.53-12.54q0-7.15-4.11-11.45a14.36,14.36,0,0,0-10.9-4.3,19.79,19.79,0,0,0-8.06,1.59,8.2,8.2,0,0,0-3.71,2.92q-1.11,1.74-3.29,9.86h-3.23a140.93,140.93,0,0,0,1.8-15,25,25,0,0,1,8.59-6.1,27,27,0,0,1,10.45-1.91q10.29,0,16.36,5.81t6.07,15.24q0,8.18-5.49,16t-18.43,19.78L1491,622.28h19.38a167.24,167.24,0,0,0,18.48-.74l.53.48a31.66,31.66,0,0,0-.48,4.29c0,.68.16,2.27.48,4.78l-.53.32q-10.5-.37-23.33-.38Q1492,631,1479.36,631.41Z"/></clipPath><clipPath id="clip-path-6"><path class="cls-1" d="M1557.89,631.41V628l4.13-.16q7.15-.21,8.57-2t1.35-14.58l.37-29.44q0-14.79-.32-16.28c-.1-.6-.42-.9-1-.9a8.51,8.51,0,0,0-2.44.85q-9,4-12.36,5.89a11.69,11.69,0,0,1-2.7,1.38c-.46,0-.73-.3-.8-.9l-.37-5.15a159,159,0,0,0,28.43-11.19l1.53.69-.21,6-.53,30.6-.37,20.9q0,7.53.64,10a5,5,0,0,0,2,3.26c.93.55,3.19.86,6.76.93l4.83.16v3.45q-13.32-.37-18.88-.38Q1570.19,631,1557.89,631.41Z"/></clipPath><clipPath id="clip-path-7"><path class="cls-1" d="M1663.87,652c.1-1.56.15-2.83.15-3.82l-.15-4.51,1.11-.58a10.84,10.84,0,0,0,5.83,1.8c2.83,0,4.81-1,5.94-2.89s1.7-7.08,1.7-15.46V580.87q0-17.5-1-19.55t-6.31-2h-3.55v-3.34q5.73.38,14.53.37,9.75,0,16.55-.37v3.34l-3.52.21q-4.32.38-5.2,1a3,3,0,0,0-1.2,2,67.43,67.43,0,0,0-.32,9v45.66q0,11.36-1.48,16.28a28.18,28.18,0,0,1-8.44,13.37q-6.16,5.51-11.78,5.51A22.56,22.56,0,0,1,1663.87,652Z"/></clipPath><clipPath id="clip-path-8"><path class="cls-1" d="M1752,589.62l36.17,33.67,3.29,3.13a5.14,5.14,0,0,0,2,1.33,13.1,13.1,0,0,0,3.42.31v3.35c-2.9-.25-5.44-.38-7.64-.38s-4.8.13-7.53.38l-36.54-34.69c-1.23-1.17-2-1.75-2.28-1.75q-1.11,0-1.11,2.07v16.17q0,11.84.48,12.95.79,1.9,5.76,1.9h4v3.35q-8.65-.37-15.35-.38-7,0-15.09.38v-3.35h4.3c2.83,0,4.52-.52,5.09-1.56s.85-5.54.85-13.5V577.52q0-14.58-.85-16.41c-.57-1.22-2.26-1.83-5.09-1.83h-4.3v-3.34q9.72.38,14.08.37,3.13,0,16.36-.37v3.34l-4.21.16c-2.41.11-3.94.43-4.58,1a4.91,4.91,0,0,0-1.2,3.26q-.24,2.45-.24,14.06v14.31h.74q4.35-3.54,7.48-6.49t10.29-10.32l15.06-15.59v-3.71q5.83.38,9.65.37c2.65,0,5.59-.12,8.8-.37v3.34H1791a13.31,13.31,0,0,0-6.47,1.46q-2.65,1.46-12.25,10.26Z"/></clipPath><clipPath id="clip-path-9"><path class="cls-1" d="M1853.74,560.77q-.59,8-.58,16.75v30.23q0,16.88.85,18.59c.56,1.15,2.58,1.72,6,1.72h4v3.35q-9.39-.37-15.91-.38t-15.8.38v-3.35h4.45c2.34,0,3.85-.31,4.56-.92s1.15-1.83,1.33-3.64q.52-6.19.53-16V577.21q0-9-.37-16.44h-5.4q-13.07,0-14.39.61t-1.75,4.74l-.74,7.11h-3.34l.11-6.31q0-3.82-.64-11,28.63.38,33.68.37l29.33-.37q-1,9-1.17,17.29h-3.34l-.53-7c-.22-2.4-.52-3.83-.9-4.27a4,4,0,0,0-2.6-.82q-5.84-.42-13.26-.42Z"/></clipPath></defs><title>LOGO IT CLUB</title><circle class="cls-2" cx="610.32" cy="551.25" r="366.13"/><circle class="cls-3" cx="610.32" cy="551.25" r="335.41"/><rect class="cls-4" x="442.55" y="397.51" width="428.27" height="70.77" rx="35.38"/><path class="cls-4" d="M870.82,518.31h0a35.38,35.38,0,0,1-35.39,35.38H625.57a35.38,35.38,0,0,0-35.38,35.38V669.6A35.39,35.39,0,0,1,554.8,705h0a35.38,35.38,0,0,1-35.38-35.39V589.07A35.38,35.38,0,0,0,484,553.69H385.2a35.38,35.38,0,0,1-35.38-35.38h0a35.38,35.38,0,0,1,35.38-35.39H835.43A35.38,35.38,0,0,1,870.82,518.31Z"/><rect class="cls-1" x="349.82" y="397.51" width="79.31" height="70.77" rx="35.38"/><path class="cls-1" d="M857.57,568.33H779.14a13.26,13.26,0,0,0-13.26,13.25V686.86a13.26,13.26,0,0,0,13.26,13.25h78.43a13.25,13.25,0,0,0,13.25-13.25V581.58A13.25,13.25,0,0,0,857.57,568.33ZM846.19,670.26a13.18,13.18,0,0,1-9.37,3.88H803.54a13.25,13.25,0,1,1,0-26.5h33.28a13.25,13.25,0,0,1,9.37,22.62Zm3.88-62.71a13.25,13.25,0,0,1-13.25,13.25H803.54a13.25,13.25,0,0,1-13.25-13.25v-.34A13.25,13.25,0,0,1,803.54,594h33.28a13.25,13.25,0,0,1,13.25,13.25Z"/><path class="cls-1" d="M393.74,630.42V642.9a20.6,20.6,0,0,0,20.61,20.6h69.82a20.61,20.61,0,0,1,20.61,20.6h0a20.61,20.61,0,0,1-20.61,20.61H372.86a20.6,20.6,0,0,1-20.6-20.61V589.21a20.6,20.6,0,0,1,20.6-20.6H484.17a20.61,20.61,0,0,1,20.61,20.6h0a20.61,20.61,0,0,1-20.61,20.61H414.35A20.6,20.6,0,0,0,393.74,630.42Z"/><path class="cls-5" d="M672.41,664.71h12.48a20.6,20.6,0,0,0,20.6-20.6V588.93a20.6,20.6,0,0,1,20.6-20.6h0a20.6,20.6,0,0,1,20.6,20.6v91.19a20.6,20.6,0,0,1-20.6,20.6H631.2a20.6,20.6,0,0,1-20.6-20.6V588.93a20.6,20.6,0,0,1,20.6-20.6h0a20.6,20.6,0,0,1,20.6,20.6v55.18A20.61,20.61,0,0,0,672.41,664.71Z"/><path class="cls-4" d="M1041.72,543.12V427.31h34.74V543.12Z"/><path class="cls-4" d="M1161.66,543.12h-34.74v-85.2h-39.7V427.31h114.15v30.61h-39.71Z"/><path class="cls-4" d="M1372.59,498.29c-5.46,28.95-27.8,46.48-61,46.48-38.54,0-62.2-21.84-62.2-59.39,0-37.72,24-59.72,62.37-59.72,33.25,0,55.58,17.7,60.88,47h-37.06c-3.64-9.59-11.41-16-23.82-16-17.87,0-26.31,11.41-26.31,28.62s8.44,28.62,26.14,28.62c12.24,0,20-6.13,23.82-15.55Z"/><path class="cls-4" d="M1479.62,543.12h-96.28V427.31h34.74v85.2h61.54Z"/><path class="cls-4" d="M1521.81,427.31v57.91c0,14.88,5.79,25.14,21.51,25.14s21.5-10.26,21.5-25.14V427.31h34.74v61.21c0,35.74-22.66,56.25-56.58,56.25-33.58,0-55.91-20.51-55.91-56.41V427.31Z"/><path class="cls-4" d="M1614.45,543.12V427.31h56.25c32.59,0,49.8,8.11,49.8,31.11,0,10.09-3.48,18.19-13.9,22.49,10.42,3.31,18.2,11.92,18.53,24.49.66,31.43-20.68,37.72-45.83,37.72Zm34.74-85.2v18.2h17c12.58,0,17-2.65,17-9.1,0-6.79-4.8-9.1-17-9.1Zm0,38.05v18.2H1669c12.58,0,17-2.32,17-8.77,0-6.78-4.79-9.43-17-9.43Z"/><path class="cls-1" d="M1085.2,559.49a61,61,0,0,0-1.59,14.64H1080v-4.24q0-4.14-1.12-5.62c-.74-1-2.67-2-5.8-3.16a29.39,29.39,0,0,0-9.89-1.67q-8.49,0-13.34,4.29a14,14,0,0,0-4.85,11,13,13,0,0,0,2,7.28,11.27,11.27,0,0,0,5.36,4.4q3.38,1.35,14.29,2.38t14.77,2.81a13.6,13.6,0,0,1,6.15,5.62,17.63,17.63,0,0,1,2.31,9.18q0,10.67-8.91,18.36t-23.76,7.7a52.22,52.22,0,0,1-10.26-1,63.54,63.54,0,0,1-10.42-3,108.72,108.72,0,0,0,.9-16.33H1041v2.65c0,3.43.17,5.55.53,6.36a6.88,6.88,0,0,0,2.49,2.6,21.67,21.67,0,0,0,7,3.16,33.43,33.43,0,0,0,8.7,1.09q10,0,15.48-4.72a15.17,15.17,0,0,0,5.46-12,13.3,13.3,0,0,0-1.85-7.19,11.17,11.17,0,0,0-5.2-4.37q-3.35-1.44-12.36-2.18-12-.94-16.28-2.86a14.5,14.5,0,0,1-6.73-6,19.66,19.66,0,0,1-2.44-10.21,21.47,21.47,0,0,1,7.48-16.91q7.47-6.59,20.68-6.58a50.7,50.7,0,0,1,10.63,1.14A56.62,56.62,0,0,1,1085.2,559.49Z"/><g class="cls-6"><polygon class="cls-1" points="1035.72 632.35 1049.78 632.47 1035.72 632.47 1035.72 632.35"/><polygon class="cls-1" points="1035.72 629.33 1089.81 629.79 1089.81 632.47 1049.78 632.47 1035.72 632.35 1035.72 629.33"/><polygon class="cls-1" points="1035.72 626.31 1089.81 626.77 1089.81 629.79 1035.72 629.33 1035.72 626.31"/><polygon class="cls-1" points="1035.72 623.29 1089.81 623.76 1089.81 626.77 1035.72 626.31 1035.72 623.29"/><polygon class="cls-1" points="1035.72 620.28 1089.81 620.74 1089.81 623.76 1035.72 623.29 1035.72 620.28"/><polygon class="cls-1" points="1035.72 617.26 1089.81 617.72 1089.81 620.74 1035.72 620.28 1035.72 617.26"/><polygon class="cls-1" points="1035.72 614.24 1089.81 614.71 1089.81 617.72 1035.72 617.26 1035.72 614.24"/><polygon class="cls-1" points="1035.72 611.23 1089.81 611.69 1089.81 614.71 1035.72 614.24 1035.72 611.23"/><polygon class="cls-1" points="1035.72 608.21 1089.81 608.67 1089.81 611.69 1035.72 611.23 1035.72 608.21"/><polygon class="cls-1" points="1035.72 605.19 1089.81 605.65 1089.81 608.67 1035.72 608.21 1035.72 605.19"/><polygon class="cls-1" points="1035.72 602.17 1089.81 602.64 1089.81 605.65 1035.72 605.19 1035.72 602.17"/><polygon class="cls-1" points="1035.72 599.16 1089.81 599.62 1089.81 602.64 1035.72 602.17 1035.72 599.16"/><polygon class="cls-1" points="1035.72 596.14 1089.81 596.6 1089.81 599.62 1035.72 599.16 1035.72 596.14"/><polygon class="cls-1" points="1035.72 593.12 1089.81 593.58 1089.81 596.6 1035.72 596.14 1035.72 593.12"/><polygon class="cls-1" points="1035.72 590.11 1089.81 590.57 1089.81 593.58 1035.72 593.12 1035.72 590.11"/><polygon class="cls-1" points="1035.72 587.09 1089.81 587.55 1089.81 590.57 1035.72 590.11 1035.72 587.09"/><polygon class="cls-1" points="1035.72 584.07 1089.81 584.53 1089.81 587.55 1035.72 587.09 1035.72 584.07"/><polygon class="cls-1" points="1035.72 581.05 1089.81 581.51 1089.81 584.53 1035.72 584.07 1035.72 581.05"/><polygon class="cls-1" points="1035.72 578.04 1089.81 578.5 1089.81 581.51 1035.72 581.05 1035.72 578.04"/><polygon class="cls-1" points="1035.72 575.02 1089.81 575.48 1089.81 578.5 1035.72 578.04 1035.72 575.02"/><polygon class="cls-1" points="1035.72 572 1089.81 572.46 1089.81 575.48 1035.72 575.02 1035.72 572"/><polygon class="cls-1" points="1035.72 568.98 1089.81 569.45 1089.81 572.46 1035.72 572 1035.72 568.98"/><polygon class="cls-1" points="1035.72 565.97 1089.81 566.43 1089.81 569.45 1035.72 568.98 1035.72 565.97"/><polygon class="cls-1" points="1035.72 562.95 1089.81 563.41 1089.81 566.43 1035.72 565.97 1035.72 562.95"/><polygon class="cls-1" points="1035.72 559.93 1089.81 560.39 1089.81 563.41 1035.72 562.95 1035.72 559.93"/><polygon class="cls-1" points="1035.72 556.91 1089.81 557.38 1089.81 560.39 1035.72 559.93 1035.72 556.91"/><polygon class="cls-1" points="1089.81 557.38 1035.72 556.91 1035.72 554.88 1089.81 554.88 1089.81 557.38"/></g><path class="cls-1" d="M1189,567.39l-15.77,32.8q-8.87,18.48-14.54,32.28h-2.12q-2-4.72-11.26-24.26l-19-39.34v41q0,14.32,1.15,16.26t7.11,1.93h2v3.35q-7.39-.37-12-.38-3.36,0-13.34.38v-3.35h3.44c2.34,0,3.89-.33,4.67-1a5.38,5.38,0,0,0,1.43-3.66q.69-7.42.69-16v-30a133.39,133.39,0,0,0-.48-14.37,3.71,3.71,0,0,0-1.56-2.75c-.9-.64-2.7-1-5.38-1h-2.81v-3.34q9.22.38,11.61.37c2,0,4.88-.12,8.6-.37q6.42,14.28,14.81,31.47l14,28.7,12.9-26.58q6.78-13.95,15.49-33.59,6.63.38,9.34.37c2.08,0,5.85-.12,11.29-.37v3.34h-3.46q-4.7,0-5.73,1.62t-1,11.64v38.77q0,12.93,1.09,14.85t6.1,1.9h3v3.35q-7.37-.37-14.11-.38-7.43,0-15.53.38v-3.35h3.5q4.18,0,5.06-1.83t.88-15.72Z"/><g class="cls-7"><polygon class="cls-1" points="1111.17 629.97 1209.17 630.81 1209.17 632.47 1111.17 632.47 1111.17 629.97"/><polygon class="cls-1" points="1111.17 626.96 1209.17 627.79 1209.17 630.81 1111.17 629.97 1111.17 626.96"/><polygon class="cls-1" points="1111.17 623.94 1209.17 624.78 1209.17 627.79 1111.17 626.96 1111.17 623.94"/><polygon class="cls-1" points="1111.17 620.92 1209.17 621.76 1209.17 624.78 1111.17 623.94 1111.17 620.92"/><polygon class="cls-1" points="1111.17 617.9 1209.17 618.74 1209.17 621.76 1111.17 620.92 1111.17 617.9"/><polygon class="cls-1" points="1111.17 614.89 1209.17 615.73 1209.17 618.74 1111.17 617.9 1111.17 614.89"/><polygon class="cls-1" points="1111.17 611.87 1209.17 612.71 1209.17 615.73 1111.17 614.89 1111.17 611.87"/><polygon class="cls-1" points="1111.17 608.85 1209.17 609.69 1209.17 612.71 1111.17 611.87 1111.17 608.85"/><polygon class="cls-1" points="1111.17 605.84 1209.17 606.67 1209.17 609.69 1111.17 608.85 1111.17 605.84"/><polygon class="cls-1" points="1111.17 602.82 1209.17 603.66 1209.17 606.67 1111.17 605.84 1111.17 602.82"/><polygon class="cls-1" points="1111.17 599.8 1209.17 600.64 1209.17 603.66 1111.17 602.82 1111.17 599.8"/><polygon class="cls-1" points="1111.17 596.78 1209.17 597.62 1209.17 600.64 1111.17 599.8 1111.17 596.78"/><polygon class="cls-1" points="1111.17 593.77 1209.17 594.6 1209.17 597.62 1111.17 596.78 1111.17 593.77"/><polygon class="cls-1" points="1111.17 590.75 1209.17 591.59 1209.17 594.6 1111.17 593.77 1111.17 590.75"/><polygon class="cls-1" points="1111.17 587.73 1209.17 588.57 1209.17 591.59 1111.17 590.75 1111.17 587.73"/><polygon class="cls-1" points="1111.17 584.72 1209.17 585.55 1209.17 588.57 1111.17 587.73 1111.17 584.72"/><polygon class="cls-1" points="1111.17 581.7 1209.17 582.54 1209.17 585.55 1111.17 584.72 1111.17 581.7"/><polygon class="cls-1" points="1111.17 578.68 1209.17 579.52 1209.17 582.54 1111.17 581.7 1111.17 578.68"/><polygon class="cls-1" points="1111.17 575.66 1209.17 576.5 1209.17 579.52 1111.17 578.68 1111.17 575.66"/><polygon class="cls-1" points="1111.17 572.65 1209.17 573.48 1209.17 576.5 1111.17 575.66 1111.17 572.65"/><polygon class="cls-1" points="1111.17 569.63 1209.17 570.47 1209.17 573.48 1111.17 572.65 1111.17 569.63"/><polygon class="cls-1" points="1111.17 566.61 1209.17 567.45 1209.17 570.47 1111.17 569.63 1111.17 566.61"/><polygon class="cls-1" points="1111.17 563.6 1209.17 564.43 1209.17 567.45 1111.17 566.61 1111.17 563.6"/><polygon class="cls-1" points="1111.17 560.58 1209.17 561.41 1209.17 564.43 1111.17 563.6 1111.17 560.58"/><polygon class="cls-1" points="1111.17 557.56 1209.17 558.4 1209.17 561.41 1111.17 560.58 1111.17 557.56"/><polygon class="cls-1" points="1209.17 558.4 1111.17 557.56 1111.17 555.94 1209.17 555.94 1209.17 558.4"/></g><path class="cls-1" d="M1262.19,589.62l36.17,33.67,3.28,3.13a5.24,5.24,0,0,0,2,1.33,13.1,13.1,0,0,0,3.42.31v3.35q-4.35-.37-7.64-.38-3.45,0-7.53.38l-36.54-34.69c-1.24-1.17-2-1.75-2.28-1.75Q1252,595,1252,597v16.17c0,7.89.15,12.2.48,12.95q.79,1.9,5.75,1.9h4v3.35q-8.65-.37-15.35-.38-7,0-15.09.38v-3.35h4.3q4.23,0,5.09-1.56T1242,613V577.52q0-14.58-.85-16.41t-5.09-1.83h-4.3v-3.34q9.72.38,14.08.37,3.13,0,16.36-.37v3.34l-4.21.16c-2.42.11-4,.43-4.58,1a4.91,4.91,0,0,0-1.2,3.26c-.17,1.63-.24,6.31-.24,14.06v14.31h.74q4.35-3.54,7.48-6.49t10.28-10.32l15.07-15.59v-3.71q5.82.38,9.65.37t8.8-.37v3.34h-2.86a13.25,13.25,0,0,0-6.47,1.46Q1292,562.2,1282.45,571Z"/><g class="cls-8"><polygon class="cls-1" points="1231.8 631 1278.7 631.4 1231.8 631.4 1231.8 631"/><polygon class="cls-1" points="1231.8 627.99 1307.11 628.63 1307.11 631.4 1278.7 631.4 1231.8 631 1231.8 627.99"/><polygon class="cls-1" points="1231.8 624.97 1307.11 625.61 1307.11 628.63 1231.8 627.99 1231.8 624.97"/><polygon class="cls-1" points="1231.8 621.95 1307.11 622.6 1307.11 625.61 1231.8 624.97 1231.8 621.95"/><polygon class="cls-1" points="1231.8 618.94 1307.11 619.58 1307.11 622.6 1231.8 621.95 1231.8 618.94"/><polygon class="cls-1" points="1231.8 615.92 1307.11 616.56 1307.11 619.58 1231.8 618.94 1231.8 615.92"/><polygon class="cls-1" points="1231.8 612.9 1307.11 613.54 1307.11 616.56 1231.8 615.92 1231.8 612.9"/><polygon class="cls-1" points="1231.8 609.88 1307.11 610.53 1307.11 613.54 1231.8 612.9 1231.8 609.88"/><polygon class="cls-1" points="1231.8 606.87 1307.11 607.51 1307.11 610.53 1231.8 609.88 1231.8 606.87"/><polygon class="cls-1" points="1231.8 603.85 1307.11 604.49 1307.11 607.51 1231.8 606.87 1231.8 603.85"/><polygon class="cls-1" points="1231.8 600.83 1307.11 601.48 1307.11 604.49 1231.8 603.85 1231.8 600.83"/><polygon class="cls-1" points="1231.8 597.82 1307.11 598.46 1307.11 601.48 1231.8 600.83 1231.8 597.82"/><polygon class="cls-1" points="1231.8 594.8 1307.11 595.44 1307.11 598.46 1231.8 597.82 1231.8 594.8"/><polygon class="cls-1" points="1231.8 591.78 1307.11 592.42 1307.11 595.44 1231.8 594.8 1231.8 591.78"/><polygon class="cls-1" points="1231.8 588.76 1307.11 589.41 1307.11 592.42 1231.8 591.78 1231.8 588.76"/><polygon class="cls-1" points="1231.8 585.75 1307.11 586.39 1307.11 589.41 1231.8 588.76 1231.8 585.75"/><polygon class="cls-1" points="1231.8 582.73 1307.11 583.37 1307.11 586.39 1231.8 585.75 1231.8 582.73"/><polygon class="cls-1" points="1231.8 579.71 1307.11 580.36 1307.11 583.37 1231.8 582.73 1231.8 579.71"/><polygon class="cls-1" points="1231.8 576.7 1307.11 577.34 1307.11 580.36 1231.8 579.71 1231.8 576.7"/><polygon class="cls-1" points="1231.8 573.68 1307.11 574.32 1307.11 577.34 1231.8 576.7 1231.8 573.68"/><polygon class="cls-1" points="1231.8 570.66 1307.11 571.3 1307.11 574.32 1231.8 573.68 1231.8 570.66"/><polygon class="cls-1" points="1231.8 567.64 1307.11 568.29 1307.11 571.3 1231.8 570.66 1231.8 567.64"/><polygon class="cls-1" points="1231.8 564.63 1307.11 565.27 1307.11 568.29 1231.8 567.64 1231.8 564.63"/><polygon class="cls-1" points="1231.8 561.61 1307.11 562.25 1307.11 565.27 1231.8 564.63 1231.8 561.61"/><polygon class="cls-1" points="1231.8 558.59 1307.11 559.24 1307.11 562.25 1231.8 561.61 1231.8 558.59"/><polygon class="cls-1" points="1274.55 555.94 1307.11 556.22 1307.11 559.24 1231.8 558.59 1231.8 555.94 1274.55 555.94"/><polygon class="cls-1" points="1307.11 556.22 1274.55 555.94 1307.11 555.94 1307.11 556.22"/></g><path class="cls-1" d="M1342.52,567.91v36.65q0,12.53.48,17.46c.25,2.51.66,4,1.25,4.59s2.28.94,5.09,1.19l3.41.26v3.35q-5.79-.37-10.47-.38-3.24,0-14.88.38v-3.35h3.82c2.3,0,3.8-.31,4.51-.95s1.15-1.89,1.32-3.77q.59-5.82.59-15.85V581.13q0-7.43-.16-14.69a9.36,9.36,0,0,0-.82-4.22,6.84,6.84,0,0,0-2.1-2,7.06,7.06,0,0,0-3.87-.9h-3.29v-3.34q6.74.38,10.29.37,3.82,0,8.38-.37,5.25,6.42,9.89,12.49t9.63,12.22l18.13,22.28q9.81,12,14.16,16.65V585.53q0-21.37-.77-23.36c-.51-1.33-2.55-2.16-6.12-2.52l-4-.37v-3.34q8.54.38,13.26.37,4.93,0,12.73-.37v3.34h-4.09c-3.28,0-5.18,1.1-5.67,3.29q-.48,2.17-.48,23.23v23.91q0,9.66.85,23.07a59.41,59.41,0,0,1-8.38-1.61,6.75,6.75,0,0,1-2.23-1.67q-5.88-6.53-12.35-14.49Z"/><g class="cls-9"><polygon class="cls-1" points="1327.4 631.82 1413 632.55 1413 632.78 1327.4 632.78 1327.4 631.82"/><polygon class="cls-1" points="1327.4 628.8 1413 629.54 1413 632.55 1327.4 631.82 1327.4 628.8"/><polygon class="cls-1" points="1327.4 625.79 1413 626.52 1413 629.54 1327.4 628.8 1327.4 625.79"/><polygon class="cls-1" points="1327.4 622.77 1413 623.5 1413 626.52 1327.4 625.79 1327.4 622.77"/><polygon class="cls-1" points="1327.4 619.75 1413 620.48 1413 623.5 1327.4 622.77 1327.4 619.75"/><polygon class="cls-1" points="1327.4 616.74 1413 617.47 1413 620.48 1327.4 619.75 1327.4 616.74"/><polygon class="cls-1" points="1327.4 613.72 1413 614.45 1413 617.47 1327.4 616.74 1327.4 613.72"/><polygon class="cls-1" points="1327.4 610.7 1413 611.43 1413 614.45 1327.4 613.72 1327.4 610.7"/><polygon class="cls-1" points="1327.4 607.68 1413 608.41 1413 611.43 1327.4 610.7 1327.4 607.68"/><polygon class="cls-1" points="1327.4 604.67 1413 605.4 1413 608.41 1327.4 607.68 1327.4 604.67"/><polygon class="cls-1" points="1327.4 601.65 1413 602.38 1413 605.4 1327.4 604.67 1327.4 601.65"/><polygon class="cls-1" points="1327.4 598.63 1413 599.36 1413 602.38 1327.4 601.65 1327.4 598.63"/><polygon class="cls-1" points="1327.4 595.62 1413 596.35 1413 599.36 1327.4 598.63 1327.4 595.62"/><polygon class="cls-1" points="1327.4 592.6 1413 593.33 1413 596.35 1327.4 595.62 1327.4 592.6"/><polygon class="cls-1" points="1327.4 589.58 1413 590.31 1413 593.33 1327.4 592.6 1327.4 589.58"/><polygon class="cls-1" points="1327.4 586.56 1413 587.29 1413 590.31 1327.4 589.58 1327.4 586.56"/><polygon class="cls-1" points="1327.4 583.55 1413 584.28 1413 587.29 1327.4 586.56 1327.4 583.55"/><polygon class="cls-1" points="1327.4 580.53 1413 581.26 1413 584.28 1327.4 583.55 1327.4 580.53"/><polygon class="cls-1" points="1327.4 577.51 1413 578.24 1413 581.26 1327.4 580.53 1327.4 577.51"/><polygon class="cls-1" points="1327.4 574.49 1413 575.23 1413 578.24 1327.4 577.51 1327.4 574.49"/><polygon class="cls-1" points="1327.4 571.48 1413 572.21 1413 575.23 1327.4 574.49 1327.4 571.48"/><polygon class="cls-1" points="1327.4 568.46 1413 569.19 1413 572.21 1327.4 571.48 1327.4 568.46"/><polygon class="cls-1" points="1327.4 565.44 1413 566.17 1413 569.19 1327.4 568.46 1327.4 565.44"/><polygon class="cls-1" points="1327.4 562.43 1413 563.16 1413 566.17 1327.4 565.44 1327.4 562.43"/><polygon class="cls-1" points="1327.4 559.41 1413 560.14 1413 563.16 1327.4 562.43 1327.4 559.41"/><polygon class="cls-1" points="1327.4 556.39 1413 557.12 1413 560.14 1327.4 559.41 1327.4 556.39"/><polygon class="cls-1" points="1413 557.12 1327.4 556.39 1327.4 555.94 1413 555.94 1413 557.12"/></g><path class="cls-1" d="M1479.36,631.41v-3l18.35-19.1q10.44-10.82,14-17.58a27.22,27.22,0,0,0,3.53-12.54q0-7.15-4.11-11.45a14.36,14.36,0,0,0-10.9-4.3,19.79,19.79,0,0,0-8.06,1.59,8.2,8.2,0,0,0-3.71,2.92q-1.11,1.74-3.29,9.86h-3.23a140.93,140.93,0,0,0,1.8-15,25,25,0,0,1,8.59-6.1,27,27,0,0,1,10.45-1.91q10.29,0,16.36,5.81t6.07,15.24q0,8.18-5.49,16t-18.43,19.78L1491,622.28h19.38a167.24,167.24,0,0,0,18.48-.74l.53.48a31.66,31.66,0,0,0-.48,4.29c0,.68.16,2.27.48,4.78l-.53.32q-10.5-.37-23.33-.38Q1492,631,1479.36,631.41Z"/><g class="cls-10"><polygon class="cls-1" points="1479.36 630.1 1529.37 630.53 1529.37 631.4 1479.36 631.4 1479.36 630.1"/><polygon class="cls-1" points="1479.36 627.09 1529.37 627.51 1529.37 630.53 1479.36 630.1 1479.36 627.09"/><polygon class="cls-1" points="1479.36 624.07 1529.37 624.5 1529.37 627.51 1479.36 627.09 1479.36 624.07"/><polygon class="cls-1" points="1479.36 621.05 1529.37 621.48 1529.37 624.5 1479.36 624.07 1479.36 621.05"/><polygon class="cls-1" points="1479.36 618.03 1529.37 618.46 1529.37 621.48 1479.36 621.05 1479.36 618.03"/><polygon class="cls-1" points="1479.36 615.02 1529.37 615.44 1529.37 618.46 1479.36 618.03 1479.36 615.02"/><polygon class="cls-1" points="1479.36 612 1529.37 612.43 1529.37 615.44 1479.36 615.02 1479.36 612"/><polygon class="cls-1" points="1479.36 608.98 1529.37 609.41 1529.37 612.43 1479.36 612 1479.36 608.98"/><polygon class="cls-1" points="1479.36 605.97 1529.37 606.39 1529.37 609.41 1479.36 608.98 1479.36 605.97"/><polygon class="cls-1" points="1479.36 602.95 1529.37 603.38 1529.37 606.39 1479.36 605.97 1479.36 602.95"/><polygon class="cls-1" points="1479.36 599.93 1529.37 600.36 1529.37 603.38 1479.36 602.95 1479.36 599.93"/><polygon class="cls-1" points="1479.36 596.91 1529.37 597.34 1529.37 600.36 1479.36 599.93 1479.36 596.91"/><polygon class="cls-1" points="1479.36 593.9 1529.37 594.32 1529.37 597.34 1479.36 596.91 1479.36 593.9"/><polygon class="cls-1" points="1479.36 590.88 1529.37 591.31 1529.37 594.32 1479.36 593.9 1479.36 590.88"/><polygon class="cls-1" points="1479.36 587.86 1529.37 588.29 1529.37 591.31 1479.36 590.88 1479.36 587.86"/><polygon class="cls-1" points="1479.36 584.85 1529.37 585.27 1529.37 588.29 1479.36 587.86 1479.36 584.85"/><polygon class="cls-1" points="1479.36 581.83 1529.37 582.25 1529.37 585.27 1479.36 584.85 1479.36 581.83"/><polygon class="cls-1" points="1479.36 578.81 1529.37 579.24 1529.37 582.25 1479.36 581.83 1479.36 578.81"/><polygon class="cls-1" points="1479.36 575.79 1529.37 576.22 1529.37 579.24 1479.36 578.81 1479.36 575.79"/><polygon class="cls-1" points="1479.36 572.78 1529.37 573.2 1529.37 576.22 1479.36 575.79 1479.36 572.78"/><polygon class="cls-1" points="1479.36 569.76 1529.37 570.19 1529.37 573.2 1479.36 572.78 1479.36 569.76"/><polygon class="cls-1" points="1479.36 566.74 1529.37 567.17 1529.37 570.19 1479.36 569.76 1479.36 566.74"/><polygon class="cls-1" points="1479.36 563.72 1529.37 564.15 1529.37 567.17 1479.36 566.74 1479.36 563.72"/><polygon class="cls-1" points="1479.36 560.71 1529.37 561.13 1529.37 564.15 1479.36 563.72 1479.36 560.71"/><polygon class="cls-1" points="1479.36 557.69 1529.37 558.12 1529.37 561.13 1479.36 560.71 1479.36 557.69"/><polygon class="cls-1" points="1503.48 554.88 1529.37 555.1 1529.37 558.12 1479.36 557.69 1479.36 554.88 1503.48 554.88"/><polygon class="cls-1" points="1529.37 555.1 1503.48 554.88 1529.37 554.88 1529.37 555.1"/></g><path class="cls-1" d="M1557.89,631.41V628l4.13-.16q7.15-.21,8.57-2t1.35-14.58l.37-29.44q0-14.79-.32-16.28c-.1-.6-.42-.9-1-.9a8.51,8.51,0,0,0-2.44.85q-9,4-12.36,5.89a11.69,11.69,0,0,1-2.7,1.38c-.46,0-.73-.3-.8-.9l-.37-5.15a159,159,0,0,0,28.43-11.19l1.53.69-.21,6-.53,30.6-.37,20.9q0,7.53.64,10a5,5,0,0,0,2,3.26c.93.55,3.19.86,6.76.93l4.83.16v3.45q-13.32-.37-18.88-.38Q1570.19,631,1557.89,631.41Z"/><g class="cls-11"><polygon class="cls-1" points="1552.37 630.73 1595.49 631.1 1595.49 631.4 1552.37 631.4 1552.37 630.73"/><polygon class="cls-1" points="1552.37 627.71 1595.49 628.08 1595.49 631.1 1552.37 630.73 1552.37 627.71"/><polygon class="cls-1" points="1552.37 624.69 1595.49 625.06 1595.49 628.08 1552.37 627.71 1552.37 624.69"/><polygon class="cls-1" points="1552.37 621.67 1595.49 622.04 1595.49 625.06 1552.37 624.69 1552.37 621.67"/><polygon class="cls-1" points="1552.37 618.66 1595.49 619.03 1595.49 622.04 1552.37 621.67 1552.37 618.66"/><polygon class="cls-1" points="1552.37 615.64 1595.49 616.01 1595.49 619.03 1552.37 618.66 1552.37 615.64"/><polygon class="cls-1" points="1552.37 612.62 1595.49 612.99 1595.49 616.01 1552.37 615.64 1552.37 612.62"/><polygon class="cls-1" points="1552.37 609.61 1595.49 609.98 1595.49 612.99 1552.37 612.62 1552.37 609.61"/><polygon class="cls-1" points="1552.37 606.59 1595.49 606.96 1595.49 609.98 1552.37 609.61 1552.37 606.59"/><polygon class="cls-1" points="1552.37 603.57 1595.49 603.94 1595.49 606.96 1552.37 606.59 1552.37 603.57"/><polygon class="cls-1" points="1552.37 600.55 1595.49 600.92 1595.49 603.94 1552.37 603.57 1552.37 600.55"/><polygon class="cls-1" points="1552.37 597.54 1595.49 597.91 1595.49 600.92 1552.37 600.55 1552.37 597.54"/><polygon class="cls-1" points="1552.37 594.52 1595.49 594.89 1595.49 597.91 1552.37 597.54 1552.37 594.52"/><polygon class="cls-1" points="1552.37 591.5 1595.49 591.87 1595.49 594.89 1552.37 594.52 1552.37 591.5"/><polygon class="cls-1" points="1552.37 588.49 1595.49 588.86 1595.49 591.87 1552.37 591.5 1552.37 588.49"/><polygon class="cls-1" points="1552.37 585.47 1595.49 585.84 1595.49 588.86 1552.37 588.49 1552.37 585.47"/><polygon class="cls-1" points="1552.37 582.45 1595.49 582.82 1595.49 585.84 1552.37 585.47 1552.37 582.45"/><polygon class="cls-1" points="1552.37 579.43 1595.49 579.8 1595.49 582.82 1552.37 582.45 1552.37 579.43"/><polygon class="cls-1" points="1552.37 576.42 1595.49 576.79 1595.49 579.8 1552.37 579.43 1552.37 576.42"/><polygon class="cls-1" points="1552.37 573.4 1595.49 573.77 1595.49 576.79 1552.37 576.42 1552.37 573.4"/><polygon class="cls-1" points="1552.37 570.38 1595.49 570.75 1595.49 573.77 1552.37 573.4 1552.37 570.38"/><polygon class="cls-1" points="1552.37 567.37 1595.49 567.73 1595.49 570.75 1552.37 570.38 1552.37 567.37"/><polygon class="cls-1" points="1552.37 564.35 1595.49 564.72 1595.49 567.73 1552.37 567.37 1552.37 564.35"/><polygon class="cls-1" points="1552.37 561.33 1595.49 561.7 1595.49 564.72 1552.37 564.35 1552.37 561.33"/><polygon class="cls-1" points="1552.37 558.31 1595.49 558.68 1595.49 561.7 1552.37 561.33 1552.37 558.31"/><polygon class="cls-1" points="1571.69 555.46 1595.49 555.66 1595.49 558.68 1552.37 558.31 1552.37 555.46 1571.69 555.46"/><polygon class="cls-1" points="1595.49 555.66 1571.69 555.46 1595.49 555.46 1595.49 555.66"/></g><path class="cls-1" d="M1663.87,652c.1-1.56.15-2.83.15-3.82l-.15-4.51,1.11-.58a10.84,10.84,0,0,0,5.83,1.8c2.83,0,4.81-1,5.94-2.89s1.7-7.08,1.7-15.46V580.87q0-17.5-1-19.55t-6.31-2h-3.55v-3.34q5.73.38,14.53.37,9.75,0,16.55-.37v3.34l-3.52.21q-4.32.38-5.2,1a3,3,0,0,0-1.2,2,67.43,67.43,0,0,0-.32,9v45.66q0,11.36-1.48,16.28a28.18,28.18,0,0,1-8.44,13.37q-6.16,5.51-11.78,5.51A22.56,22.56,0,0,1,1663.87,652Z"/><g class="cls-12"><polygon class="cls-1" points="1663.87 649.78 1698.65 650.08 1698.65 652.3 1663.87 652.3 1663.87 649.78"/><polygon class="cls-1" points="1663.87 646.77 1698.65 647.06 1698.65 650.08 1663.87 649.78 1663.87 646.77"/><polygon class="cls-1" points="1663.87 643.75 1698.65 644.05 1698.65 647.06 1663.87 646.77 1663.87 643.75"/><polygon class="cls-1" points="1663.87 640.73 1698.65 641.03 1698.65 644.05 1663.87 643.75 1663.87 640.73"/><polygon class="cls-1" points="1663.87 637.71 1698.65 638.01 1698.65 641.03 1663.87 640.73 1663.87 637.71"/><polygon class="cls-1" points="1663.87 634.7 1698.65 635 1698.65 638.01 1663.87 637.71 1663.87 634.7"/><polygon class="cls-1" points="1663.87 631.68 1698.65 631.98 1698.65 635 1663.87 634.7 1663.87 631.68"/><polygon class="cls-1" points="1663.87 628.66 1698.65 628.96 1698.65 631.98 1663.87 631.68 1663.87 628.66"/><polygon class="cls-1" points="1663.87 625.65 1698.65 625.94 1698.65 628.96 1663.87 628.66 1663.87 625.65"/><polygon class="cls-1" points="1663.87 622.63 1698.65 622.93 1698.65 625.94 1663.87 625.65 1663.87 622.63"/><polygon class="cls-1" points="1663.87 619.61 1698.65 619.91 1698.65 622.93 1663.87 622.63 1663.87 619.61"/><polygon class="cls-1" points="1663.87 616.59 1698.65 616.89 1698.65 619.91 1663.87 619.61 1663.87 616.59"/><polygon class="cls-1" points="1663.87 613.58 1698.65 613.87 1698.65 616.89 1663.87 616.59 1663.87 613.58"/><polygon class="cls-1" points="1663.87 610.56 1698.65 610.86 1698.65 613.87 1663.87 613.58 1663.87 610.56"/><polygon class="cls-1" points="1663.87 607.54 1698.65 607.84 1698.65 610.86 1663.87 610.56 1663.87 607.54"/><polygon class="cls-1" points="1663.87 604.52 1698.65 604.82 1698.65 607.84 1663.87 607.54 1663.87 604.52"/><polygon class="cls-1" points="1663.87 601.51 1698.65 601.8 1698.65 604.82 1663.87 604.52 1663.87 601.51"/><polygon class="cls-1" points="1663.87 598.49 1698.65 598.79 1698.65 601.8 1663.87 601.51 1663.87 598.49"/><polygon class="cls-1" points="1663.87 595.47 1698.65 595.77 1698.65 598.79 1663.87 598.49 1663.87 595.47"/><polygon class="cls-1" points="1663.87 592.46 1698.65 592.75 1698.65 595.77 1663.87 595.47 1663.87 592.46"/><polygon class="cls-1" points="1663.87 589.44 1698.65 589.74 1698.65 592.75 1663.87 592.46 1663.87 589.44"/><polygon class="cls-1" points="1663.87 586.42 1698.65 586.72 1698.65 589.74 1663.87 589.44 1663.87 586.42"/><polygon class="cls-1" points="1663.87 583.4 1698.65 583.7 1698.65 586.72 1663.87 586.42 1663.87 583.4"/><polygon class="cls-1" points="1663.87 580.39 1698.65 580.68 1698.65 583.7 1663.87 583.4 1663.87 580.39"/><polygon class="cls-1" points="1663.87 577.37 1698.65 577.67 1698.65 580.68 1663.87 580.39 1663.87 577.37"/><polygon class="cls-1" points="1663.87 574.35 1698.65 574.65 1698.65 577.67 1663.87 577.37 1663.87 574.35"/><polygon class="cls-1" points="1663.87 571.34 1698.65 571.63 1698.65 574.65 1663.87 574.35 1663.87 571.34"/><polygon class="cls-1" points="1663.87 568.32 1698.65 568.62 1698.65 571.63 1663.87 571.34 1663.87 568.32"/><polygon class="cls-1" points="1663.87 565.3 1698.65 565.6 1698.65 568.62 1663.87 568.32 1663.87 565.3"/><polygon class="cls-1" points="1663.87 562.28 1698.65 562.58 1698.65 565.6 1663.87 565.3 1663.87 562.28"/><polygon class="cls-1" points="1663.87 559.27 1698.65 559.56 1698.65 562.58 1663.87 562.28 1663.87 559.27"/><polygon class="cls-1" points="1663.87 556.25 1698.65 556.55 1698.65 559.56 1663.87 559.27 1663.87 556.25"/><polygon class="cls-1" points="1698.65 556.55 1663.87 556.25 1663.87 555.94 1698.65 555.94 1698.65 556.55"/></g><path class="cls-1" d="M1752,589.62l36.17,33.67,3.29,3.13a5.14,5.14,0,0,0,2,1.33,13.1,13.1,0,0,0,3.42.31v3.35c-2.9-.25-5.44-.38-7.64-.38s-4.8.13-7.53.38l-36.54-34.69c-1.23-1.17-2-1.75-2.28-1.75q-1.11,0-1.11,2.07v16.17q0,11.84.48,12.95.79,1.9,5.76,1.9h4v3.35q-8.65-.37-15.35-.38-7,0-15.09.38v-3.35h4.3c2.83,0,4.52-.52,5.09-1.56s.85-5.54.85-13.5V577.52q0-14.58-.85-16.41c-.57-1.22-2.26-1.83-5.09-1.83h-4.3v-3.34q9.72.38,14.08.37,3.13,0,16.36-.37v3.34l-4.21.16c-2.41.11-3.94.43-4.58,1a4.91,4.91,0,0,0-1.2,3.26q-.24,2.45-.24,14.06v14.31h.74q4.35-3.54,7.48-6.49t10.29-10.32l15.06-15.59v-3.71q5.83.38,9.65.37c2.65,0,5.59-.12,8.8-.37v3.34H1791a13.31,13.31,0,0,0-6.47,1.46q-2.65,1.46-12.25,10.26Z"/><g class="cls-13"><polygon class="cls-1" points="1721.65 629.16 1796.96 629.8 1796.96 631.4 1721.65 631.4 1721.65 629.16"/><polygon class="cls-1" points="1721.65 626.14 1796.96 626.78 1796.96 629.8 1721.65 629.16 1721.65 626.14"/><polygon class="cls-1" points="1721.65 623.12 1796.96 623.77 1796.96 626.78 1721.65 626.14 1721.65 623.12"/><polygon class="cls-1" points="1721.65 620.11 1796.96 620.75 1796.96 623.77 1721.65 623.12 1721.65 620.11"/><polygon class="cls-1" points="1721.65 617.09 1796.96 617.73 1796.96 620.75 1721.65 620.11 1721.65 617.09"/><polygon class="cls-1" points="1721.65 614.07 1796.96 614.71 1796.96 617.73 1721.65 617.09 1721.65 614.07"/><polygon class="cls-1" points="1721.65 611.05 1796.96 611.7 1796.96 614.71 1721.65 614.07 1721.65 611.05"/><polygon class="cls-1" points="1721.65 608.04 1796.96 608.68 1796.96 611.7 1721.65 611.05 1721.65 608.04"/><polygon class="cls-1" points="1721.65 605.02 1796.96 605.66 1796.96 608.68 1721.65 608.04 1721.65 605.02"/><polygon class="cls-1" points="1721.65 602 1796.96 602.64 1796.96 605.66 1721.65 605.02 1721.65 602"/><polygon class="cls-1" points="1721.65 598.99 1796.96 599.63 1796.96 602.64 1721.65 602 1721.65 598.99"/><polygon class="cls-1" points="1721.65 595.97 1796.96 596.61 1796.96 599.63 1721.65 598.99 1721.65 595.97"/><polygon class="cls-1" points="1721.65 592.95 1796.96 593.59 1796.96 596.61 1721.65 595.97 1721.65 592.95"/><polygon class="cls-1" points="1721.65 589.93 1796.96 590.58 1796.96 593.59 1721.65 592.95 1721.65 589.93"/><polygon class="cls-1" points="1721.65 586.92 1796.96 587.56 1796.96 590.58 1721.65 589.93 1721.65 586.92"/><polygon class="cls-1" points="1721.65 583.9 1796.96 584.54 1796.96 587.56 1721.65 586.92 1721.65 583.9"/><polygon class="cls-1" points="1721.65 580.88 1796.96 581.52 1796.96 584.54 1721.65 583.9 1721.65 580.88"/><polygon class="cls-1" points="1721.65 577.86 1796.96 578.51 1796.96 581.52 1721.65 580.88 1721.65 577.86"/><polygon class="cls-1" points="1721.65 574.85 1796.96 575.49 1796.96 578.51 1721.65 577.86 1721.65 574.85"/><polygon class="cls-1" points="1721.65 571.83 1796.96 572.47 1796.96 575.49 1721.65 574.85 1721.65 571.83"/><polygon class="cls-1" points="1721.65 568.81 1796.96 569.46 1796.96 572.47 1721.65 571.83 1721.65 568.81"/><polygon class="cls-1" points="1721.65 565.79 1796.96 566.44 1796.96 569.46 1721.65 568.81 1721.65 565.79"/><polygon class="cls-1" points="1721.65 562.78 1796.96 563.42 1796.96 566.44 1721.65 565.79 1721.65 562.78"/><polygon class="cls-1" points="1721.65 559.76 1796.96 560.4 1796.96 563.42 1721.65 562.78 1721.65 559.76"/><polygon class="cls-1" points="1721.65 556.74 1796.96 557.39 1796.96 560.4 1721.65 559.76 1721.65 556.74"/><polygon class="cls-1" points="1796.96 557.39 1721.65 556.74 1721.65 555.94 1796.96 555.94 1796.96 557.39"/></g><path class="cls-1" d="M1853.74,560.77q-.59,8-.58,16.75v30.23q0,16.88.85,18.59c.56,1.15,2.58,1.72,6,1.72h4v3.35q-9.39-.37-15.91-.38t-15.8.38v-3.35h4.45c2.34,0,3.85-.31,4.56-.92s1.15-1.83,1.33-3.64q.52-6.19.53-16V577.21q0-9-.37-16.44h-5.4q-13.07,0-14.39.61t-1.75,4.74l-.74,7.11h-3.34l.11-6.31q0-3.82-.64-11,28.63.38,33.68.37l29.33-.37q-1,9-1.17,17.29h-3.34l-.53-7c-.22-2.4-.52-3.83-.9-4.27a4,4,0,0,0-2.6-.82q-5.84-.42-13.26-.42Z"/><g class="cls-14"><polygon class="cls-1" points="1816.67 629.97 1879.68 630.51 1879.68 631.4 1816.67 631.4 1816.67 629.97"/><polygon class="cls-1" points="1816.67 626.95 1879.68 627.49 1879.68 630.51 1816.67 629.97 1816.67 626.95"/><polygon class="cls-1" points="1816.67 623.93 1879.68 624.47 1879.68 627.49 1816.67 626.95 1816.67 623.93"/><polygon class="cls-1" points="1816.67 620.92 1879.68 621.46 1879.68 624.47 1816.67 623.93 1816.67 620.92"/><polygon class="cls-1" points="1816.67 617.9 1879.68 618.44 1879.68 621.46 1816.67 620.92 1816.67 617.9"/><polygon class="cls-1" points="1816.67 614.88 1879.68 615.42 1879.68 618.44 1816.67 617.9 1816.67 614.88"/><polygon class="cls-1" points="1816.67 611.87 1879.68 612.4 1879.68 615.42 1816.67 614.88 1816.67 611.87"/><polygon class="cls-1" points="1816.67 608.85 1879.68 609.39 1879.68 612.4 1816.67 611.87 1816.67 608.85"/><polygon class="cls-1" points="1816.67 605.83 1879.68 606.37 1879.68 609.39 1816.67 608.85 1816.67 605.83"/><polygon class="cls-1" points="1816.67 602.81 1879.68 603.35 1879.68 606.37 1816.67 605.83 1816.67 602.81"/><polygon class="cls-1" points="1816.67 599.8 1879.68 600.34 1879.68 603.35 1816.67 602.81 1816.67 599.8"/><polygon class="cls-1" points="1816.67 596.78 1879.68 597.32 1879.68 600.34 1816.67 599.8 1816.67 596.78"/><polygon class="cls-1" points="1816.67 593.76 1879.68 594.3 1879.68 597.32 1816.67 596.78 1816.67 593.76"/><polygon class="cls-1" points="1816.67 590.75 1879.68 591.28 1879.68 594.3 1816.67 593.76 1816.67 590.75"/><polygon class="cls-1" points="1816.67 587.73 1879.68 588.27 1879.68 591.28 1816.67 590.75 1816.67 587.73"/><polygon class="cls-1" points="1816.67 584.71 1879.68 585.25 1879.68 588.27 1816.67 587.73 1816.67 584.71"/><polygon class="cls-1" points="1816.67 581.69 1879.68 582.23 1879.68 585.25 1816.67 584.71 1816.67 581.69"/><polygon class="cls-1" points="1816.67 578.68 1879.68 579.22 1879.68 582.23 1816.67 581.69 1816.67 578.68"/><polygon class="cls-1" points="1816.67 575.66 1879.68 576.2 1879.68 579.22 1816.67 578.68 1816.67 575.66"/><polygon class="cls-1" points="1816.67 572.64 1879.68 573.18 1879.68 576.2 1816.67 575.66 1816.67 572.64"/><polygon class="cls-1" points="1816.67 569.63 1879.68 570.16 1879.68 573.18 1816.67 572.64 1816.67 569.63"/><polygon class="cls-1" points="1816.67 566.61 1879.68 567.15 1879.68 570.16 1816.67 569.63 1816.67 566.61"/><polygon class="cls-1" points="1816.67 563.59 1879.68 564.13 1879.68 567.15 1816.67 566.61 1816.67 563.59"/><polygon class="cls-1" points="1816.67 560.57 1879.68 561.11 1879.68 564.13 1816.67 563.59 1816.67 560.57"/><polygon class="cls-1" points="1816.67 557.56 1879.68 558.09 1879.68 561.11 1816.67 560.57 1816.67 557.56"/><polygon class="cls-1" points="1879.68 558.09 1816.67 557.56 1816.67 555.94 1879.68 555.94 1879.68 558.09"/></g><path class="cls-1" d="M1085.2,559.49a61,61,0,0,0-1.59,14.64H1080v-4.24q0-4.14-1.12-5.62c-.74-1-2.67-2-5.8-3.16a29.39,29.39,0,0,0-9.89-1.67q-8.49,0-13.34,4.29a14,14,0,0,0-4.85,11,13,13,0,0,0,2,7.28,11.27,11.27,0,0,0,5.36,4.4q3.38,1.35,14.29,2.38t14.77,2.81a13.6,13.6,0,0,1,6.15,5.62,17.63,17.63,0,0,1,2.31,9.18q0,10.67-8.91,18.36t-23.76,7.7a52.22,52.22,0,0,1-10.26-1,63.54,63.54,0,0,1-10.42-3,108.72,108.72,0,0,0,.9-16.33H1041v2.65c0,3.43.17,5.55.53,6.36a6.88,6.88,0,0,0,2.49,2.6,21.67,21.67,0,0,0,7,3.16,33.43,33.43,0,0,0,8.7,1.09q10,0,15.48-4.72a15.17,15.17,0,0,0,5.46-12,13.3,13.3,0,0,0-1.85-7.19,11.17,11.17,0,0,0-5.2-4.37q-3.35-1.44-12.36-2.18-12-.94-16.28-2.86a14.5,14.5,0,0,1-6.73-6,19.66,19.66,0,0,1-2.44-10.21,21.47,21.47,0,0,1,7.48-16.91q7.47-6.59,20.68-6.58a50.7,50.7,0,0,1,10.63,1.14A56.62,56.62,0,0,1,1085.2,559.49Z"/><path class="cls-1" d="M1189,567.39l-15.77,32.8q-8.87,18.48-14.54,32.28h-2.12q-2-4.72-11.26-24.26l-19-39.34v41q0,14.32,1.15,16.26t7.11,1.93h2v3.35q-7.39-.37-12-.38-3.36,0-13.34.38v-3.35h3.44c2.34,0,3.89-.33,4.67-1a5.38,5.38,0,0,0,1.43-3.66q.69-7.42.69-16v-30a133.39,133.39,0,0,0-.48-14.37,3.71,3.71,0,0,0-1.56-2.75c-.9-.64-2.7-1-5.38-1h-2.81v-3.34q9.22.38,11.61.37c2,0,4.88-.12,8.6-.37q6.42,14.28,14.81,31.47l14,28.7,12.9-26.58q6.78-13.95,15.49-33.59,6.63.38,9.34.37c2.08,0,5.85-.12,11.29-.37v3.34h-3.46q-4.7,0-5.73,1.62t-1,11.64v38.77q0,12.93,1.09,14.85t6.1,1.9h3v3.35q-7.37-.37-14.11-.38-7.43,0-15.53.38v-3.35h3.5q4.18,0,5.06-1.83t.88-15.72Z"/><path class="cls-1" d="M1262.19,589.62l36.17,33.67,3.28,3.13a5.24,5.24,0,0,0,2,1.33,13.1,13.1,0,0,0,3.42.31v3.35q-4.35-.37-7.64-.38-3.45,0-7.53.38l-36.54-34.69c-1.24-1.17-2-1.75-2.28-1.75Q1252,595,1252,597v16.17c0,7.89.15,12.2.48,12.95q.79,1.9,5.75,1.9h4v3.35q-8.65-.37-15.35-.38-7,0-15.09.38v-3.35h4.3q4.23,0,5.09-1.56T1242,613V577.52q0-14.58-.85-16.41t-5.09-1.83h-4.3v-3.34q9.72.38,14.08.37,3.13,0,16.36-.37v3.34l-4.21.16c-2.42.11-4,.43-4.58,1a4.91,4.91,0,0,0-1.2,3.26c-.17,1.63-.24,6.31-.24,14.06v14.31h.74q4.35-3.54,7.48-6.49t10.28-10.32l15.07-15.59v-3.71q5.82.38,9.65.37t8.8-.37v3.34h-2.86a13.25,13.25,0,0,0-6.47,1.46Q1292,562.2,1282.45,571Z"/><path class="cls-1" d="M1342.52,567.91v36.65q0,12.53.48,17.46c.25,2.51.66,4,1.25,4.59s2.28.94,5.09,1.19l3.41.26v3.35q-5.79-.37-10.47-.38-3.24,0-14.88.38v-3.35h3.82c2.3,0,3.8-.31,4.51-.95s1.15-1.89,1.32-3.77q.59-5.82.59-15.85V581.13q0-7.43-.16-14.69a9.36,9.36,0,0,0-.82-4.22,6.84,6.84,0,0,0-2.1-2,7.06,7.06,0,0,0-3.87-.9h-3.29v-3.34q6.74.38,10.29.37,3.82,0,8.38-.37,5.25,6.42,9.89,12.49t9.63,12.22l18.13,22.28q9.81,12,14.16,16.65V585.53q0-21.37-.77-23.36c-.51-1.33-2.55-2.16-6.12-2.52l-4-.37v-3.34q8.54.38,13.26.37,4.93,0,12.73-.37v3.34h-4.09c-3.28,0-5.18,1.1-5.67,3.29q-.48,2.17-.48,23.23v23.91q0,9.66.85,23.07a59.41,59.41,0,0,1-8.38-1.61,6.75,6.75,0,0,1-2.23-1.67q-5.88-6.53-12.35-14.49Z"/><path class="cls-1" d="M1479.36,631.41v-3l18.35-19.1q10.44-10.82,14-17.58a27.22,27.22,0,0,0,3.53-12.54q0-7.15-4.11-11.45a14.36,14.36,0,0,0-10.9-4.3,19.79,19.79,0,0,0-8.06,1.59,8.2,8.2,0,0,0-3.71,2.92q-1.11,1.74-3.29,9.86h-3.23a140.93,140.93,0,0,0,1.8-15,25,25,0,0,1,8.59-6.1,27,27,0,0,1,10.45-1.91q10.29,0,16.36,5.81t6.07,15.24q0,8.18-5.49,16t-18.43,19.78L1491,622.28h19.38a167.24,167.24,0,0,0,18.48-.74l.53.48a31.66,31.66,0,0,0-.48,4.29c0,.68.16,2.27.48,4.78l-.53.32q-10.5-.37-23.33-.38Q1492,631,1479.36,631.41Z"/><path class="cls-1" d="M1557.89,631.41V628l4.13-.16q7.15-.21,8.57-2t1.35-14.58l.37-29.44q0-14.79-.32-16.28c-.1-.6-.42-.9-1-.9a8.51,8.51,0,0,0-2.44.85q-9,4-12.36,5.89a11.69,11.69,0,0,1-2.7,1.38c-.46,0-.73-.3-.8-.9l-.37-5.15a159,159,0,0,0,28.43-11.19l1.53.69-.21,6-.53,30.6-.37,20.9q0,7.53.64,10a5,5,0,0,0,2,3.26c.93.55,3.19.86,6.76.93l4.83.16v3.45q-13.32-.37-18.88-.38Q1570.19,631,1557.89,631.41Z"/><path class="cls-1" d="M1663.87,652c.1-1.56.15-2.83.15-3.82l-.15-4.51,1.11-.58a10.84,10.84,0,0,0,5.83,1.8c2.83,0,4.81-1,5.94-2.89s1.7-7.08,1.7-15.46V580.87q0-17.5-1-19.55t-6.31-2h-3.55v-3.34q5.73.38,14.53.37,9.75,0,16.55-.37v3.34l-3.52.21q-4.32.38-5.2,1a3,3,0,0,0-1.2,2,67.43,67.43,0,0,0-.32,9v45.66q0,11.36-1.48,16.28a28.18,28.18,0,0,1-8.44,13.37q-6.16,5.51-11.78,5.51A22.56,22.56,0,0,1,1663.87,652Z"/><path class="cls-1" d="M1752,589.62l36.17,33.67,3.29,3.13a5.14,5.14,0,0,0,2,1.33,13.1,13.1,0,0,0,3.42.31v3.35c-2.9-.25-5.44-.38-7.64-.38s-4.8.13-7.53.38l-36.54-34.69c-1.23-1.17-2-1.75-2.28-1.75q-1.11,0-1.11,2.07v16.17q0,11.84.48,12.95.79,1.9,5.76,1.9h4v3.35q-8.65-.37-15.35-.38-7,0-15.09.38v-3.35h4.3c2.83,0,4.52-.52,5.09-1.56s.85-5.54.85-13.5V577.52q0-14.58-.85-16.41c-.57-1.22-2.26-1.83-5.09-1.83h-4.3v-3.34q9.72.38,14.08.37,3.13,0,16.36-.37v3.34l-4.21.16c-2.41.11-3.94.43-4.58,1a4.91,4.91,0,0,0-1.2,3.26q-.24,2.45-.24,14.06v14.31h.74q4.35-3.54,7.48-6.49t10.29-10.32l15.06-15.59v-3.71q5.83.38,9.65.37c2.65,0,5.59-.12,8.8-.37v3.34H1791a13.31,13.31,0,0,0-6.47,1.46q-2.65,1.46-12.25,10.26Z"/><path class="cls-1" d="M1853.74,560.77q-.59,8-.58,16.75v30.23q0,16.88.85,18.59c.56,1.15,2.58,1.72,6,1.72h4v3.35q-9.39-.37-15.91-.38t-15.8.38v-3.35h4.45c2.34,0,3.85-.31,4.56-.92s1.15-1.83,1.33-3.64q.52-6.19.53-16V577.21q0-9-.37-16.44h-5.4q-13.07,0-14.39.61t-1.75,4.74l-.74,7.11h-3.34l.11-6.31q0-3.82-.64-11,28.63.38,33.68.37l29.33-.37q-1,9-1.17,17.29h-3.34l-.53-7c-.22-2.4-.52-3.83-.9-4.27a4,4,0,0,0-2.6-.82q-5.84-.42-13.26-.42Z"/></svg>