<svg id="Layer_1" data-name="Layer 1" xmlns="http://www.w3.org/2000/svg" viewBox="0 0 1000 1000"><defs><style>.cls-1,.cls-2{fill:none;stroke-miterlimit:10;}.cls-1{stroke:#444054;stroke-width:10px;}.cls-2{stroke:#2f243a;stroke-width:5px;}.cls-3{fill:#30243a;}.cls-4{fill:#f8931f;}.cls-5{fill:#f7931e;}</style></defs><title>IT CLUB 21</title><g id="SHAPE"><circle class="cls-1" cx="500.32" cy="500.25" r="464.9"/><circle class="cls-2" cx="500.32" cy="500.25" r="425.89"/></g><g id="LOGO"><rect class="cls-3" x="287.29" y="305.04" width="543.8" height="89.86" rx="44.93"/><path class="cls-3" d="M831.09,458.42h0a44.93,44.93,0,0,1-44.93,44.93H519.68a44.93,44.93,0,0,0-44.93,44.93V650.53a44.92,44.92,0,0,1-44.92,44.93h0a44.92,44.92,0,0,1-44.93-44.93V548.28A44.93,44.93,0,0,0,340,503.35H214.47a44.94,44.94,0,0,1-44.93-44.93h0a44.94,44.94,0,0,1,44.93-44.93H786.16A44.93,44.93,0,0,1,831.09,458.42Z"/><rect class="cls-4" x="169.54" y="305.04" width="100.7" height="89.86" rx="44.93"/><path class="cls-4" d="M814.27,521.94H714.68a16.82,16.82,0,0,0-16.83,16.83V672.44a16.83,16.83,0,0,0,16.83,16.83h99.59a16.83,16.83,0,0,0,16.82-16.83V538.77A16.82,16.82,0,0,0,814.27,521.94ZM799.83,651.37a16.81,16.81,0,0,1-11.9,4.92H745.67a16.82,16.82,0,1,1,0-33.64h42.26a16.83,16.83,0,0,1,11.9,28.72Zm4.92-79.64a16.82,16.82,0,0,1-16.82,16.83H745.67a16.82,16.82,0,0,1-16.83-16.83v-.43a16.82,16.82,0,0,1,16.83-16.82h42.26a16.82,16.82,0,0,1,16.82,16.82Z"/><path class="cls-4" d="M225.32,600.78v15.85a26.16,26.16,0,0,0,26.16,26.16h88.66A26.16,26.16,0,0,1,366.3,669h0a26.16,26.16,0,0,1-26.16,26.15H198.8A26.16,26.16,0,0,1,172.64,669V548.46A26.16,26.16,0,0,1,198.8,522.3H340.14a26.16,26.16,0,0,1,26.16,26.16h0a26.16,26.16,0,0,1-26.16,26.16H251.48A26.16,26.16,0,0,0,225.32,600.78Z"/><path class="cls-5" d="M579.15,644.32H595a26.16,26.16,0,0,0,26.16-26.16V548.1a26.16,26.16,0,0,1,26.16-26.16h0a26.16,26.16,0,0,1,26.16,26.16V663.88A26.16,26.16,0,0,1,647.32,690H526.83a26.16,26.16,0,0,1-26.16-26.16V548.1a26.16,26.16,0,0,1,26.16-26.16h0A26.16,26.16,0,0,1,553,548.1v70.06A26.17,26.17,0,0,0,579.15,644.32Z"/></g></svg>